<svg xmlns="http://www.w3.org/2000/svg" xmlns:xlink="http://www.w3.org/1999/xlink" width="500" zoomAndPan="magnify" viewBox="0 0 375 374.999991" height="500" preserveAspectRatio="xMidYMid meet" version="1.0"><defs><g/><clipPath id="180c0c8a9b"><path d="M 119 46.464844 L 255 46.464844 L 255 260.171875 L 119 260.171875 Z M 119 46.464844 " clip-rule="nonzero"/></clipPath></defs><rect x="-37.5" width="450" fill="#ffffff" y="-37.499999" height="449.999989" fill-opacity="1"/><rect x="-37.5" width="450" fill="#ffffff" y="-37.499999" height="449.999989" fill-opacity="1"/><rect x="-37.5" width="450" fill="#ffffff" y="-37.499999" height="449.999989" fill-opacity="1"/><g fill="#1b0000" fill-opacity="1"><g transform="translate(91.704769, 313.329911)"><g><path d="M 25.128906 0 L 25.128906 -5.558594 L 10.046875 -5.558594 L 24.625 -23.722656 L 24.648438 -28.527344 L 2.179688 -28.527344 L 2.179688 -22.992188 L 15.859375 -22.992188 L 1.300781 -4.910156 L 1.382812 0 Z M 25.128906 0 "/></g></g></g><g fill="#1b0000" fill-opacity="1"><g transform="translate(122.529652, 313.329911)"><g><path d="M 9.566406 0 L 9.566406 -28.527344 L 2.914062 -28.527344 L 2.914062 0 Z M 9.566406 0 "/></g></g></g><g fill="#1b0000" fill-opacity="1"><g transform="translate(139.324731, 313.329911)"><g><path d="M 16.234375 0.648438 C 25.613281 0.648438 31.066406 -5.644531 30.960938 -15.667969 L 15.941406 -15.667969 L 15.941406 -10.363281 L 23.578125 -10.363281 C 22.757812 -7.238281 20.011719 -5.433594 16.195312 -5.433594 C 11.578125 -5.433594 7.742188 -8.621094 7.742188 -14.285156 C 7.742188 -19.800781 11.578125 -23.15625 16.195312 -23.15625 C 19.738281 -23.15625 22.425781 -21.5 23.808594 -18.710938 L 30.5625 -18.710938 C 29.367188 -25.445312 22.382812 -29.242188 16.382812 -29.242188 C 7.929688 -29.242188 1.089844 -22.613281 1.089844 -14.304688 C 1.089844 -6.019531 7.929688 0.648438 16.234375 0.648438 Z M 16.234375 0.648438 "/></g></g></g><g fill="#1b0000" fill-opacity="1"><g transform="translate(175.665058, 313.329911)"><g/></g></g><g fill="#5271ff" fill-opacity="1"><g transform="translate(190.271169, 313.329911)"><g><path d="M 16.234375 0.648438 C 25.613281 0.648438 31.066406 -5.644531 30.960938 -15.667969 L 15.941406 -15.667969 L 15.941406 -10.363281 L 23.578125 -10.363281 C 22.757812 -7.238281 20.011719 -5.433594 16.195312 -5.433594 C 11.578125 -5.433594 7.742188 -8.621094 7.742188 -14.285156 C 7.742188 -19.800781 11.578125 -23.15625 16.195312 -23.15625 C 19.738281 -23.15625 22.425781 -21.5 23.808594 -18.710938 L 30.5625 -18.710938 C 29.367188 -25.445312 22.382812 -29.242188 16.382812 -29.242188 C 7.929688 -29.242188 1.089844 -22.613281 1.089844 -14.304688 C 1.089844 -6.019531 7.929688 0.648438 16.234375 0.648438 Z M 16.234375 0.648438 "/></g></g></g><g fill="#5271ff" fill-opacity="1"><g transform="translate(226.611497, 313.329911)"><g><path d="M 9.566406 0 L 9.566406 -8.472656 L 15.355469 -8.472656 C 21.292969 -8.472656 25.550781 -12.503906 25.550781 -18.648438 C 25.550781 -24.375 21.25 -28.527344 15.269531 -28.527344 L 2.914062 -28.527344 L 2.914062 0 Z M 9.566406 -22.613281 L 15 -22.613281 C 17.179688 -22.613281 18.898438 -20.640625 18.898438 -18.648438 C 18.898438 -16.234375 17.160156 -14.367188 15 -14.367188 L 9.566406 -14.367188 Z M 9.566406 -22.613281 "/></g></g></g><g fill="#5271ff" fill-opacity="1"><g transform="translate(256.933068, 313.329911)"><g><path d="M 13.277344 0.714844 C 20.347656 0.714844 25.191406 -2.390625 25.191406 -8.097656 C 25.191406 -13.65625 20.765625 -16.066406 15.039062 -17.222656 C 10.550781 -18.0625 8.664062 -18.960938 8.664062 -20.789062 C 8.664062 -22.089844 9.398438 -23.453125 12.941406 -23.453125 C 16.425781 -23.453125 17.558594 -21.859375 17.558594 -20.261719 L 24.207031 -20.261719 C 24.207031 -25.71875 20.492188 -29.242188 13.027344 -29.242188 C 5.644531 -29.242188 2.015625 -25.800781 2.015625 -20.828125 C 2.015625 -14.789062 7.929688 -12.902344 12.734375 -11.746094 C 16.425781 -10.90625 18.460938 -10.089844 18.460938 -8.117188 C 18.460938 -5.957031 16.96875 -4.867188 13.257812 -4.867188 C 9.859375 -4.867188 7.949219 -6.460938 7.949219 -8.832031 L 1.300781 -8.832031 C 1.300781 -4.214844 4.53125 0.714844 13.277344 0.714844 Z M 13.277344 0.714844 "/></g></g></g><g clip-path="url(#180c0c8a9b)"><path fill="#5271ff" d="M 189.230469 46.449219 C 188.613281 46.433594 187.980469 46.425781 187.34375 46.425781 C 186.714844 46.425781 186.082031 46.433594 185.453125 46.449219 C 135.457031 47.726562 104.566406 101.898438 127.808594 146.328125 L 145.675781 180.5 L 187.34375 260.171875 L 202 232.140625 C 196.011719 220.972656 190 209.804688 184.003906 198.640625 C 174.839844 181.582031 165.675781 164.519531 156.507812 147.476562 C 151.855469 138.816406 147.417969 129.980469 146.199219 120.078125 C 143.273438 96.183594 163.582031 74.914062 187.179688 74.824219 C 210.320312 74.734375 229.097656 93.511719 229.097656 116.695312 C 229.097656 139.824219 210.398438 158.570312 187.34375 158.570312 C 186.582031 158.570312 185.828125 158.550781 185.074219 158.511719 L 212.863281 211.390625 L 229.019531 180.5 L 246.875 146.328125 C 270.121094 101.898438 239.230469 47.726562 189.230469 46.449219 " fill-opacity="1" fill-rule="nonzero"/></g></svg>